<svg width="32" height="32" viewBox="0 0 32 32" fill="none" xmlns="http://www.w3.org/2000/svg">
<g clip-path="url(#clip0_33_1953)">
<path d="M29.8667 22.9333V28.8C29.8667 29.9781 28.9115 30.9333 27.7334 30.9333H20.8V28.8H27.2C27.4944 28.8 27.7334 28.5611 27.7334 28.2667V22.9333H29.8667Z" fill="#EFEFEF"/>
<path d="M4.2667 16V11.2C4.2667 6.49493 8.09496 2.66666 12.8 2.66666H19.2C23.9051 2.66666 27.7334 6.49493 27.7334 11.2V16H29.8667V11.2C29.8667 5.30879 25.0912 0.533325 19.2 0.533325H12.8C6.90883 0.533325 2.13336 5.30879 2.13336 11.2V16H4.2667Z" fill="#EFEFEF"/>
<path d="M6.40002 13.1627V9.59999C6.40002 9.01333 6.88002 8.53333 7.46669 8.53333C7.76002 8.53333 8.02669 8.65066 8.21869 8.84799C8.41602 9.03999 8.53336 9.30666 8.53336 9.59999V11.7333L6.40002 13.1627Z" fill="#EFEFEF"/>
<path d="M23.4667 12.2667V9.59999C23.4667 9.30666 23.584 9.03999 23.7813 8.84799C23.9733 8.65066 24.24 8.53333 24.5333 8.53333C25.12 8.53333 25.6 9.01333 25.6 9.59999V13.1627L23.4667 12.2667Z" fill="#EFEFEF"/>
<path d="M22.9333 26.1334H9.06666C7.0048 26.1334 5.33333 24.4619 5.33333 22.4H4.26666V16.5334H5.33333C5.33333 13.2934 7.96 10.6667 11.2 10.6667H20.8C24.04 10.6667 26.6667 13.2934 26.6667 16.5334H27.7333V22.4H26.6667C26.6667 24.4619 24.9952 26.1334 22.9333 26.1334Z" fill="#DCE4EA"/>
<path d="M24.5333 17.9557V21.8666C24.5333 23.0448 23.5781 24 22.4 24H9.60001C8.42187 24 7.46667 23.0448 7.46667 21.8666V17.9557C7.46667 15.8037 8.82827 13.9733 10.7376 13.2773C11.5307 12.9882 12.4091 13.169 13.1019 13.6522C13.6283 14.0197 14.5291 14.4 16 14.4C17.4709 14.4 18.3717 14.0197 18.8981 13.6522C19.5904 13.169 20.4688 12.9882 21.2624 13.2773C23.1723 13.9728 24.5333 15.8032 24.5333 17.9557Z" fill="#0A365E"/>
<path d="M11.4667 20.2667C12.2031 20.2667 12.8 19.5503 12.8 18.6667C12.8 17.783 12.2031 17.0667 11.4667 17.0667C10.7303 17.0667 10.1334 17.783 10.1334 18.6667C10.1334 19.5503 10.7303 20.2667 11.4667 20.2667Z" fill="#21E1EB"/>
<path d="M20.5333 20.2667C21.2697 20.2667 21.8667 19.5503 21.8667 18.6667C21.8667 17.783 21.2697 17.0667 20.5333 17.0667C19.797 17.0667 19.2 17.783 19.2 18.6667C19.2 19.5503 19.797 20.2667 20.5333 20.2667Z" fill="#21E1EB"/>
<path d="M2.13333 14.9333H4.26666C4.85546 14.9333 5.33333 15.4112 5.33333 16V22.9333C5.33333 23.5222 4.85546 24 4.26666 24H2.13333C1.25013 24 0.533325 23.2832 0.533325 22.4V16.5333C0.533325 15.6501 1.25013 14.9333 2.13333 14.9333Z" fill="#EDA600"/>
<path d="M29.8667 24H27.7333C27.1445 24 26.6667 23.5221 26.6667 22.9333V16C26.6667 15.4112 27.1445 14.9333 27.7333 14.9333H29.8667C30.7499 14.9333 31.4667 15.6501 31.4667 16.5333V22.4C31.4667 23.2832 30.7499 24 29.8667 24Z" fill="#EDA600"/>
<path d="M17.0667 28.2667H21.3333C21.6277 28.2667 21.8667 28.5056 21.8667 28.8V30.9333C21.8667 31.2277 21.6277 31.4667 21.3333 31.4667H17.0667C16.1835 31.4667 15.4667 30.7499 15.4667 29.8667C15.4667 28.9835 16.1835 28.2667 17.0667 28.2667Z" fill="#EDA600"/>
<path d="M16 21.8667C15.2134 21.8667 14.6806 21.3824 14.4896 21.096C14.3259 20.8512 14.392 20.52 14.6374 20.3563C14.8811 20.1925 15.2139 20.2587 15.3771 20.504C15.3808 20.5088 15.5952 20.8 16 20.8C16.4075 20.8 16.6208 20.5067 16.623 20.504C16.7862 20.2587 17.1179 20.1925 17.3627 20.3563C17.608 20.52 17.6742 20.8512 17.5104 21.096C17.3195 21.3824 16.7867 21.8667 16 21.8667Z" fill="#21E1EB"/>
</g>
<defs>
<clipPath id="clip0_33_1953">
<rect width="32" height="32" fill="white"/>
</clipPath>
</defs>
</svg>
