<svg width="40" height="40" viewBox="0 0 40 40" fill="none" xmlns="http://www.w3.org/2000/svg">
<circle cx="20" cy="20" r="20" fill="#00C0CA" fill-opacity="0.1"/>
<path d="M25.4499 13.4334L20.8666 11.7167C20.3916 11.5417 19.6166 11.5417 19.1416 11.7167L14.5583 13.4334C13.6749 13.7667 12.9583 14.8 12.9583 15.7417V22.4917C12.9583 23.1667 13.3999 24.0584 13.9416 24.4584L18.5249 27.8834C19.3333 28.4917 20.6583 28.4917 21.4666 27.8834L26.0499 24.4584C26.5916 24.05 27.0333 23.1667 27.0333 22.4917V15.7417C27.0416 14.8 26.3249 13.7667 25.4499 13.4334ZM22.8999 18.1L19.3166 21.6834C19.1916 21.8084 19.0333 21.8667 18.8749 21.8667C18.7166 21.8667 18.5583 21.8084 18.4333 21.6834L17.0999 20.3334C16.8583 20.0917 16.8583 19.6917 17.0999 19.45C17.3416 19.2084 17.7416 19.2084 17.9833 19.45L18.8833 20.35L22.0249 17.2084C22.2666 16.9667 22.6666 16.9667 22.9083 17.2084C23.1499 17.45 23.1499 17.8584 22.8999 18.1Z" fill="#00C0CA"/>
</svg>
