<svg width="24" height="20" viewBox="0 0 16 14" fill="none" xmlns="http://www.w3.org/2000/svg">
<path d="M14.0001 5.50013H5.20708L7.64608 3.06113C7.92747 2.77986 8.08561 2.39834 8.08571 2.00048C8.0858 1.60262 7.92784 1.22102 7.64658 0.939627C7.36532 0.658232 6.98379 0.500094 6.58593 0.5C6.18807 0.499906 5.80647 0.657865 5.52508 0.939127L1.93908 4.52513C1.28385 5.18216 0.915894 6.07221 0.915894 7.00013C0.915894 7.92804 1.28385 8.81809 1.93908 9.47513L5.52508 13.0611C5.80647 13.3424 6.18807 13.5003 6.58593 13.5003C6.98379 13.5002 7.36532 13.342 7.64658 13.0606C7.92784 12.7792 8.0858 12.3976 8.08571 11.9998C8.08561 11.6019 7.92747 11.2204 7.64608 10.9391L5.20708 8.50013H14.0001C14.3979 8.50013 14.7794 8.34209 15.0607 8.06079C15.342 7.77948 15.5001 7.39795 15.5001 7.00013C15.5001 6.6023 15.342 6.22077 15.0607 5.93947C14.7794 5.65816 14.3979 5.50013 14.0001 5.50013Z" fill="#90A8BF"/>
</svg>
