<svg width="17" height="17" viewBox="0 0 17 17" fill="none" xmlns="http://www.w3.org/2000/svg">
<path d="M2.67962 1.05722L3.02974 0.707107C3.42026 0.316582 4.05342 0.316582 4.44395 0.707106L6.81921 3.08237C7.20973 3.47289 7.20973 4.10606 6.81921 4.49658L5.15835 6.15744C4.8752 6.44059 4.805 6.87316 4.98408 7.23133C6.01933 9.30181 7.69819 10.9807 9.76868 12.0159C10.1268 12.195 10.5594 12.1248 10.8426 11.8416L12.5034 10.1808C12.8939 9.79027 13.5271 9.79027 13.9176 10.1808L16.2929 12.5561C16.6834 12.9466 16.6834 13.5797 16.2929 13.9703L15.9428 14.3204C13.8314 16.4317 10.4889 16.6693 8.10014 14.8777L7.31278 14.2872C5.56925 12.9796 4.02043 11.4307 2.71278 9.68722L2.12226 8.89986C0.330722 6.51114 0.568269 3.16857 2.67962 1.05722Z" fill="white"/>
</svg>
