<svg width="27" height="27" viewBox="0 0 27 27" fill="none" xmlns="http://www.w3.org/2000/svg">
<path d="M13.4427 16.3571C17.3027 16.3571 20.5987 16.969 20.5987 19.4179C20.5987 21.8657 17.3239 22.5 13.4427 22.5C9.58257 22.5 6.2866 21.888 6.2866 19.4402C6.2866 16.9913 9.56142 16.3571 13.4427 16.3571ZM19.6145 14.8825C21.0902 14.8551 22.6767 15.0578 23.263 15.2016C24.505 15.4458 25.322 15.9443 25.6604 16.6687C25.9465 17.2635 25.9465 17.9534 25.6604 18.5472C25.1427 19.6708 23.4735 20.0315 22.8248 20.1247C22.6908 20.145 22.583 20.0284 22.5971 19.8937C22.9286 16.7802 20.2924 15.304 19.6104 14.9646C19.5812 14.9494 19.5752 14.9261 19.5782 14.9119C19.5802 14.9017 19.5923 14.8855 19.6145 14.8825ZM7.1084 14.8804L7.3863 14.8829C7.40846 14.8859 7.41954 14.9021 7.42155 14.9113C7.42458 14.9265 7.41853 14.9487 7.39033 14.965C6.70736 15.3044 4.07118 16.7806 4.40259 19.8931C4.4167 20.0288 4.30992 20.1443 4.17594 20.1251C3.52723 20.0319 1.85808 19.6712 1.34032 18.5476C1.05323 17.9528 1.05323 17.2639 1.34032 16.6691C1.67878 15.9447 2.49471 15.4462 3.73675 15.201C4.32402 15.0582 5.90956 14.8555 7.3863 14.8829L7.1084 14.8804ZM13.4427 4.5C16.0708 4.5 18.1781 6.61755 18.1781 9.26196C18.1781 11.9054 16.0708 14.0249 13.4427 14.0249C10.8145 14.0249 8.70721 11.9054 8.70721 9.26196C8.70721 6.61755 10.8145 4.5 13.4427 4.5ZM19.8713 5.29413C22.4098 5.29413 24.4033 7.69639 23.7244 10.3722C23.266 12.1736 21.6069 13.3702 19.7585 13.3216C19.5732 13.3165 19.3908 13.2993 19.2145 13.2689C19.0866 13.2466 19.0221 13.1017 19.0947 12.9943C19.7998 11.9507 20.2017 10.6954 20.2017 9.34788C20.2017 7.94158 19.7625 6.63052 19 5.55553C18.9758 5.5221 18.9577 5.47043 18.9818 5.43193C19.002 5.40052 19.0393 5.38431 19.0745 5.3762C19.3314 5.32351 19.5953 5.29413 19.8713 5.29413ZM7.12792 5.29403C7.40393 5.29403 7.66785 5.32341 7.92572 5.3761C7.95997 5.3842 7.99825 5.40143 8.0184 5.43182C8.04156 5.47032 8.02444 5.522 8.00026 5.55543C7.23772 6.63042 6.79852 7.94148 6.79852 9.34777C6.79852 10.6953 7.20045 11.9506 7.90558 12.9942C7.9781 13.1016 7.91363 13.2465 7.7857 13.2688C7.60841 13.3002 7.42709 13.3164 7.24175 13.3215C5.3933 13.3701 3.73423 12.1735 3.2759 10.3721C2.59595 7.69629 4.58945 5.29403 7.12792 5.29403Z" fill="#CDCDD9"/>
</svg>
