<svg width="44" height="44" viewBox="0 0 44 44" fill="none" xmlns="http://www.w3.org/2000/svg">
<path d="M21.9066 26.656C28.1971 26.656 33.5683 27.6533 33.5683 31.644C33.5683 35.6331 28.2316 36.6667 21.9066 36.6667C15.6161 36.6667 10.2449 35.6694 10.2449 31.6803C10.2449 27.6896 15.5816 26.656 21.9066 26.656ZM31.9643 24.253C34.3692 24.2084 36.9547 24.5386 37.9101 24.7731C39.9342 25.171 41.2655 25.9833 41.817 27.1639C42.2832 28.1331 42.2832 29.2575 41.817 30.2251C40.9733 32.0561 38.2532 32.6439 37.196 32.7958C36.9777 32.8289 36.802 32.639 36.825 32.4194C37.3651 27.3455 33.0691 24.9398 31.9578 24.3867C31.9102 24.362 31.9003 24.324 31.9052 24.3009C31.9085 24.2844 31.9282 24.2579 31.9643 24.253ZM11.5841 24.2496L12.037 24.2536C12.0731 24.2586 12.0911 24.285 12.0944 24.2999C12.0994 24.3246 12.0895 24.361 12.0435 24.3874C10.9306 24.9405 6.63456 27.3462 7.17464 32.4184C7.19762 32.6396 7.02361 32.8279 6.80528 32.7965C5.74811 32.6446 3.02803 32.0568 2.18426 30.2257C1.71641 29.2565 1.71641 28.1338 2.18426 27.1646C2.73583 25.984 4.0655 25.1717 6.08956 24.7721C7.04659 24.5393 9.63043 24.2091 12.037 24.2536L11.5841 24.2496ZM21.9066 7.33337C26.1894 7.33337 29.6236 10.7842 29.6236 15.0936C29.6236 19.4014 26.1894 22.8555 21.9066 22.8555C17.6237 22.8555 14.1896 19.4014 14.1896 15.0936C14.1896 10.7842 17.6237 7.33337 21.9066 7.33337ZM32.3829 8.62752C36.5197 8.62752 39.7684 12.5423 38.6619 16.9029C37.915 19.8386 35.2114 21.7885 32.1991 21.7093C31.897 21.701 31.5999 21.673 31.3126 21.6234C31.1041 21.5871 30.9991 21.351 31.1173 21.176C32.2664 19.4753 32.9214 17.4296 32.9214 15.2336C32.9214 12.9419 32.2056 10.8053 30.963 9.0535C30.9236 8.99902 30.894 8.91481 30.9334 8.85207C30.9663 8.80088 31.027 8.77446 31.0845 8.76126C31.5031 8.6754 31.9331 8.62752 32.3829 8.62752ZM11.6159 8.62735C12.0657 8.62735 12.4958 8.67523 12.916 8.76109C12.9718 8.7743 13.0342 8.80237 13.0671 8.8519C13.1048 8.91464 13.0769 8.99885 13.0375 9.05334C11.7948 10.8052 11.0791 12.9417 11.0791 15.2335C11.0791 17.4294 11.7341 19.4752 12.8832 21.1758C13.0014 21.3508 12.8963 21.5869 12.6879 21.6233C12.3989 21.6744 12.1035 21.7009 11.8014 21.7091C8.78912 21.7884 6.08545 19.8384 5.33854 16.9027C4.23048 12.5421 7.47915 8.62735 11.6159 8.62735Z" fill="#00C0CA"/>
</svg>
