<svg width="35" height="37" viewBox="0 0 35 37" fill="none" xmlns="http://www.w3.org/2000/svg">
<path d="M12.1638 34.4178V28.812C12.1638 27.381 13.3323 26.2209 14.7738 26.2209H20.0431C20.7353 26.2209 21.3992 26.4939 21.8887 26.9798C22.3782 27.4657 22.6532 28.1248 22.6532 28.812V34.4178C22.6488 35.0127 22.8838 35.5848 23.306 36.007C23.7282 36.4292 24.3028 36.6667 24.9021 36.6667H28.497C30.176 36.671 31.7877 36.0119 32.9765 34.8348C34.1652 33.6577 34.8333 32.0595 34.8333 30.3927V14.4226C34.8333 13.0762 34.2321 11.799 33.1918 10.9352L20.9624 1.23909C18.835 -0.46097 15.787 -0.406079 13.7232 1.36946L1.77286 10.9352C0.683358 11.7736 0.0321792 13.0545 0 14.4226V30.3764C0 33.8504 2.83687 36.6667 6.33632 36.6667H9.8492C11.0939 36.6667 12.1055 35.6697 12.1145 34.4341L12.1638 34.4178Z" fill="#CDCDD9"/>
</svg>
