<svg width="12" height="12" viewBox="0 0 12 12" fill="none" xmlns="http://www.w3.org/2000/svg">
<g clip-path="url(#clip0_356_3203)">
<path d="M11 5C10.9776 5.95022 10.7412 6.88316 10.3084 7.72937C9.87555 8.57558 9.25741 9.31326 8.5 9.8875V11.5C8.5 11.6326 8.44732 11.7598 8.35355 11.8536C8.25978 11.9473 8.13261 12 8 12C7.86739 12 7.74021 11.9473 7.64645 11.8536C7.55268 11.7598 7.5 11.6326 7.5 11.5V1C7.49552 0.812132 7.54685 0.627153 7.64751 0.468465C7.74817 0.309776 7.89363 0.184505 8.0655 0.1085C8.26292 0.0281826 8.47946 0.00711508 8.68867 0.0478721C8.89787 0.0886291 9.09067 0.189445 9.2435 0.338C10.4032 1.61048 11.0317 3.27865 11 5V5ZM5.5 0C5.36739 0 5.24021 0.0526784 5.14645 0.146447C5.05268 0.240215 5 0.367392 5 0.5V3.5C4.99872 3.80913 4.90196 4.11031 4.72296 4.36235C4.54395 4.61438 4.29145 4.80496 4 4.908V0.5C4 0.367392 3.94732 0.240215 3.85355 0.146447C3.75978 0.0526784 3.63261 0 3.5 0C3.36739 0 3.24021 0.0526784 3.14645 0.146447C3.05268 0.240215 3 0.367392 3 0.5V4.908C2.70855 4.80496 2.45605 4.61438 2.27704 4.36235C2.09804 4.11031 2.00128 3.80913 2 3.5V0.5C2 0.367392 1.94732 0.240215 1.85355 0.146447C1.75979 0.0526784 1.63261 0 1.5 0C1.36739 0 1.24021 0.0526784 1.14645 0.146447C1.05268 0.240215 1 0.367392 1 0.5V3.5C1.00073 4.0761 1.20005 4.63434 1.56436 5.08063C1.92867 5.52691 2.43571 5.83395 3 5.95V11.5C3 11.6326 3.05268 11.7598 3.14645 11.8536C3.24021 11.9473 3.36739 12 3.5 12C3.63261 12 3.75978 11.9473 3.85355 11.8536C3.94732 11.7598 4 11.6326 4 11.5V5.95C4.56429 5.83395 5.07133 5.52691 5.43564 5.08063C5.79995 4.63434 5.99927 4.0761 6 3.5V0.5C6 0.367392 5.94732 0.240215 5.85355 0.146447C5.75978 0.0526784 5.63261 0 5.5 0V0Z" fill="#FF7A00"/>
</g>
<defs>
<clipPath id="clip0_356_3203">
<rect width="12" height="12" fill="white"/>
</clipPath>
</defs>
</svg>
