<svg width="40" height="40" viewBox="0 0 40 40" fill="none" xmlns="http://www.w3.org/2000/svg">
<circle cx="20" cy="20" r="20" fill="#00C0CA" fill-opacity="0.1"/>
<path d="M26.1168 22.0751L25.2834 20.6917C25.1084 20.3834 24.9501 19.8001 24.9501 19.4584V17.3501C24.9501 15.3917 23.8001 13.7001 22.1418 12.9084C21.7084 12.1417 20.9084 11.6667 19.9918 11.6667C19.0834 11.6667 18.2668 12.1584 17.8334 12.9334C16.2084 13.7417 15.0834 15.4167 15.0834 17.3501V19.4584C15.0834 19.8001 14.9251 20.3834 14.7501 20.6834L13.9084 22.0751C13.5751 22.6334 13.5001 23.2501 13.7084 23.8167C13.9084 24.3751 14.3834 24.8084 15.0001 25.0167C16.6168 25.5667 18.3168 25.8334 20.0168 25.8334C21.7168 25.8334 23.4168 25.5667 25.0334 25.0251C25.6168 24.8334 26.0668 24.3917 26.2834 23.8167C26.5001 23.2417 26.4418 22.6084 26.1168 22.0751Z" fill="#00C0CA"/>
<path d="M22.3582 26.6751C22.0082 27.6417 21.0832 28.3334 19.9999 28.3334C19.3416 28.3334 18.6916 28.0667 18.2332 27.5917C17.9666 27.3417 17.7666 27.0084 17.6499 26.6667C17.7582 26.6834 17.8666 26.6917 17.9832 26.7084C18.1749 26.7334 18.3749 26.7584 18.5749 26.7751C19.0499 26.8167 19.5332 26.8417 20.0166 26.8417C20.4916 26.8417 20.9666 26.8167 21.4332 26.7751C21.6082 26.7584 21.7832 26.7501 21.9499 26.7251C22.0832 26.7084 22.2166 26.6917 22.3582 26.6751Z" fill="#00C0CA"/>
</svg>
