<svg width="36" height="36" viewBox="0 0 24 24" fill="none" xmlns="http://www.w3.org/2000/svg">
<path d="M12.3884 21.2233C12.1107 21.2589 11.8444 21.2588 11.5873 21.2237C11.097 21.1522 10.6295 20.9551 10.2317 20.6437L10.2139 20.6298L10.1954 20.6169C9.98072 20.4688 9.85661 20.2668 9.82819 20.0772C9.84863 20.0622 9.88255 20.042 9.93389 20.0205C9.98744 19.9981 10.0508 19.9779 10.1212 19.9612C10.1273 19.9602 10.1432 19.9577 10.1718 19.9543C10.2087 19.9501 10.2566 19.9456 10.3161 19.9411C10.4352 19.9322 10.5867 19.9243 10.7632 19.9179C11.1154 19.9051 11.5492 19.8986 11.9861 19.8986C12.423 19.8986 12.8569 19.9051 13.2091 19.9179C13.3855 19.9243 13.5371 19.9322 13.6561 19.9411C13.7156 19.9456 13.7636 19.9501 13.8004 19.9543C13.8291 19.9577 13.845 19.9602 13.8511 19.9612C13.9215 19.9779 13.9848 19.9981 14.0384 20.0205C14.0897 20.042 14.1236 20.0622 14.1441 20.0772C14.1156 20.267 13.9913 20.4697 13.7761 20.6192L13.7591 20.631L13.7428 20.6437C13.344 20.9546 12.8767 21.1516 12.3884 21.2233ZM16.9184 5.08251L16.92 5.08469C17.6279 5.99622 17.957 6.88422 17.957 8.3703V8.79633C17.957 9.4927 18.0494 10.0881 18.2652 10.6436C18.4803 11.1973 18.8013 11.668 19.1998 12.1334L19.1997 12.1335L19.2067 12.1413C19.5903 12.5769 19.7499 13.1717 19.7499 13.956C19.7499 14.6561 19.5237 15.3061 19.0775 15.8345C18.4508 16.5001 17.5667 16.9258 16.6754 16.9995L16.6735 16.9997C15.1066 17.1333 13.5604 17.2437 12.0004 17.2437C10.4272 17.2437 8.88522 17.1771 7.34871 17.0018L7.33709 17.0005L7.32543 16.9995C6.43298 16.9258 5.54899 16.5 4.92355 15.8347C4.47686 15.3058 4.24994 14.6556 4.24994 13.956C4.24994 13.1727 4.41011 12.5774 4.79326 12.1413C5.20783 11.6717 5.53175 11.1977 5.74512 10.6401C5.9585 10.0824 6.04386 9.487 6.04386 8.79633V8.3703C6.04386 6.85268 6.40913 5.92059 7.15974 4.98393C8.29605 3.59628 10.1367 2.75 11.9557 2.75H12.0452C13.9074 2.75 15.8069 3.64046 16.9184 5.08251Z" stroke="white" stroke-width="1.5"/>
</svg>
