<svg width="8" height="7" viewBox="0 0 8 7" fill="none" xmlns="http://www.w3.org/2000/svg">
<path d="M2.25463 2.61133L2.58167 2.87575C2.78986 3.04408 2.89395 3.12825 2.94023 3.24697C2.98651 3.36568 2.96685 3.4981 2.92752 3.76292L2.86574 4.17892C2.68983 5.36347 2.60187 5.95575 2.91135 6.11181C3.22083 6.26787 3.64477 5.84502 4.49263 4.9993L6.81961 2.67824C7.48537 2.01417 7.81826 1.68214 7.70428 1.38976C7.5903 1.09739 7.12052 1.07826 6.18096 1.04001L2.89703 0.906292C1.70047 0.85757 1.1022 0.833209 0.979995 1.15756C0.857794 1.4819 1.32341 1.85838 2.25463 2.61133Z" fill="#00C0CA"/>
</svg>
