<svg width="44" height="44" viewBox="0 0 44 44" fill="none" xmlns="http://www.w3.org/2000/svg">
<rect width="44" height="44" rx="20" fill="#FF7A00" fill-opacity="0.1"/>
<g clip-path="url(#clip0_658_3959)">
<path d="M22 12C20.0222 12 18.0888 12.5865 16.4443 13.6853C14.7998 14.7841 13.5181 16.3459 12.7612 18.1732C12.0043 20.0004 11.8063 22.0111 12.1922 23.9509C12.578 25.8907 13.5304 27.6725 14.9289 29.0711C16.3275 30.4696 18.1093 31.422 20.0491 31.8079C21.9889 32.1937 23.9996 31.9957 25.8268 31.2388C27.6541 30.4819 29.2159 29.2002 30.3147 27.5557C31.4135 25.9112 32 23.9778 32 22C31.9971 19.3487 30.9426 16.8068 29.0679 14.9321C27.1932 13.0574 24.6513 12.0029 22 12V12ZM18.6667 18.6667C19.1087 18.6667 19.5326 18.8423 19.8452 19.1548C20.1577 19.4674 20.3333 19.8913 20.3333 20.3333C20.3333 21.1667 19.5875 21.1667 18.6667 21.1667C17.7458 21.1667 17 21.1667 17 20.3333C17 19.8913 17.1756 19.4674 17.4882 19.1548C17.8007 18.8423 18.2246 18.6667 18.6667 18.6667V18.6667ZM26.7217 25.1217C25.3984 26.2521 23.7382 26.9126 22 27C20.2619 26.9126 18.6016 26.2521 17.2783 25.1217C17.1135 24.9745 17.0138 24.7678 17.0013 24.5471C16.9951 24.4379 17.0105 24.3285 17.0466 24.2252C17.0827 24.1218 17.1388 24.0266 17.2117 23.945C17.2846 23.8634 17.3728 23.7969 17.4714 23.7493C17.57 23.7018 17.6769 23.6742 17.7862 23.668C18.0069 23.6555 18.2235 23.7311 18.3883 23.8783C19.4069 24.7351 20.672 25.2448 22 25.3333C23.3288 25.2447 24.5946 24.7344 25.6133 23.8767C25.6951 23.8039 25.7904 23.7479 25.8937 23.712C25.9971 23.676 26.1066 23.6608 26.2158 23.6671C26.3251 23.6735 26.432 23.7013 26.5305 23.749C26.6291 23.7966 26.7172 23.8633 26.79 23.945C26.8628 24.0267 26.9187 24.122 26.9547 24.2254C26.9906 24.3288 27.0059 24.4382 26.9995 24.5475C26.9932 24.6568 26.9654 24.7637 26.9177 24.8622C26.87 24.9607 26.8034 25.0489 26.7217 25.1217V25.1217ZM25.3333 21.1667C24.4125 21.1667 23.6667 21.1667 23.6667 20.3333C23.6667 19.8913 23.8423 19.4674 24.1548 19.1548C24.4674 18.8423 24.8913 18.6667 25.3333 18.6667C25.7754 18.6667 26.1993 18.8423 26.5118 19.1548C26.8244 19.4674 27 19.8913 27 20.3333C27 21.1667 26.2542 21.1667 25.3333 21.1667Z" fill="#FF7A00"/>
</g>
<defs>
<clipPath id="clip0_658_3959">
<rect width="20" height="20" fill="white" transform="translate(12 12)"/>
</clipPath>
</defs>
</svg>
