<svg width="44" height="44" viewBox="0 0 44 44" fill="none" xmlns="http://www.w3.org/2000/svg">
<path d="M32.3046 32.3661C33.0132 31.6623 34.1491 31.6623 34.8578 32.3661L39.5413 36.1467H39.6226C40.5702 37.1045 40.5702 38.6573 39.6226 39.615C38.6751 40.5727 37.1388 40.5727 36.1913 39.615L32.3046 35.1605L32.1571 34.9941C31.8824 34.6463 31.7306 34.2127 31.7306 33.7633C31.7306 33.239 31.9371 32.7363 32.3046 32.3661ZM19.3923 3.66663C23.563 3.66663 27.5629 5.34126 30.512 8.32212C33.4612 11.303 35.118 15.3459 35.118 19.5615C35.118 28.34 28.0773 35.4564 19.3923 35.4564C10.7072 35.4564 3.66663 28.34 3.66663 19.5615C3.66663 10.783 10.7072 3.66663 19.3923 3.66663Z" fill="#CDCDD9"/>
</svg>
