<svg width="27" height="27" viewBox="0 0 27 27" fill="none" xmlns="http://www.w3.org/2000/svg">
<path d="M19.8233 19.8611C20.2581 19.4292 20.9552 19.4292 21.39 19.8611L24.264 22.181H24.3139C24.8954 22.7687 24.8954 23.7215 24.3139 24.3092C23.7325 24.8969 22.7898 24.8969 22.2083 24.3092L19.8233 21.5758L19.7328 21.4737C19.5642 21.2603 19.4711 20.9942 19.4711 20.7184C19.4711 20.3967 19.5978 20.0882 19.8233 19.8611ZM11.8998 2.25C14.4591 2.25 16.9136 3.27762 18.7233 5.10678C20.533 6.93595 21.5497 9.41683 21.5497 12.0037C21.5497 17.3905 17.2293 21.7573 11.8998 21.7573C6.57038 21.7573 2.25 17.3905 2.25 12.0037C2.25 6.61687 6.57038 2.25 11.8998 2.25Z" fill="#00C0CA"/>
</svg>
