<svg width="27" height="27" viewBox="0 0 27 27" fill="none" xmlns="http://www.w3.org/2000/svg">
<path d="M1.80761 20.25C2.73816 21.865 4.80182 22.4199 6.41686 21.4894C6.41797 21.4887 6.41902 21.4881 6.42013 21.4875L6.92074 21.1983C7.86574 22.0068 8.95196 22.6339 10.1247 23.0478V23.625C10.1247 25.4889 11.6358 27 13.4997 27C15.3637 27 16.8747 25.4889 16.8747 23.625V23.0479C18.0476 22.6332 19.1339 22.0055 20.0787 21.1961L20.5816 21.4864C22.197 22.4183 24.2621 21.8643 25.1941 20.2488C26.1261 18.6334 25.572 16.5683 23.9566 15.6363L23.4571 15.3483C23.6819 14.1248 23.6819 12.8706 23.4571 11.6471L23.9566 11.3591C25.572 10.4271 26.1261 8.36204 25.1941 6.74657C24.2621 5.13116 22.197 4.57708 20.5816 5.50905L20.081 5.7982C19.135 4.99068 18.0481 4.36482 16.8747 3.95213V3.375C16.8747 1.51105 15.3637 0 13.4997 0C11.6358 0 10.1247 1.51105 10.1247 3.375V3.95213C8.9518 4.36678 7.86553 4.99453 6.92074 5.80389L6.41786 5.51253C4.8024 4.58051 2.73732 5.13459 1.80534 6.75C0.87337 8.36541 1.4274 10.4305 3.04286 11.3625L3.54236 11.6505C3.3175 12.874 3.3175 14.1282 3.54236 15.3518L3.04286 15.6397C1.43188 16.5742 0.879645 18.6353 1.80761 20.25ZM13.4997 9.00002C15.985 9.00002 17.9997 11.0147 17.9997 13.5C17.9997 15.9853 15.985 18 13.4997 18C11.0145 18 8.99974 15.9853 8.99974 13.5C8.99974 11.0147 11.0145 9.00002 13.4997 9.00002Z" fill="#C3D9E9"/>
</svg>
