<svg width="27" height="27" viewBox="0 0 44 44" fill="none" xmlns="http://www.w3.org/2000/svg">
<g clip-path="url(#clip0_302_1761)">
<path d="M44 16.5C44 15.0413 43.4205 13.6424 42.3891 12.6109C41.3576 11.5795 39.9587 11 38.5 11H33C33 8.08262 31.8411 5.28473 29.7782 3.22183C27.7153 1.15893 24.9174 0 22 0C19.0826 0 16.2847 1.15893 14.2218 3.22183C12.1589 5.28473 11 8.08262 11 11H5.5C4.04131 11 2.64236 11.5795 1.61091 12.6109C0.579463 13.6424 0 15.0413 0 16.5L0 34.8333C0.00291107 37.2636 0.969617 39.5935 2.68807 41.3119C4.40652 43.0304 6.73641 43.9971 9.16667 44H34.8333C37.2636 43.9971 39.5935 43.0304 41.3119 41.3119C43.0304 39.5935 43.9971 37.2636 44 34.8333V16.5ZM14.6667 11C14.6667 9.05508 15.4393 7.18982 16.8146 5.81455C18.1898 4.43928 20.0551 3.66667 22 3.66667C23.9449 3.66667 25.8102 4.43928 27.1855 5.81455C28.5607 7.18982 29.3333 9.05508 29.3333 11H14.6667Z" fill="#C3D9E9"/>
</g>
<defs>
<clipPath id="clip0_302_1761">
<rect width="44" height="44" fill="white"/>
</clipPath>
</defs>
</svg>
