<svg width="18" height="14" viewBox="0 0 18 14" fill="none" xmlns="http://www.w3.org/2000/svg">
<path d="M9.00008 0.333496C10.7237 0.333496 12.3578 0.931476 13.7806 2.03855C15.2033 3.13754 16.4147 4.74562 17.2846 6.75774C17.3497 6.91127 17.3497 7.08905 17.2846 7.23451C15.5448 11.2587 12.4472 13.6668 9.00008 13.6668H8.99195C5.55293 13.6668 2.45537 11.2587 0.715529 7.23451C0.650488 7.08905 0.650488 6.91127 0.715529 6.75774C2.45537 2.7335 5.55293 0.333496 8.99195 0.333496H9.00008ZM9.00008 3.76784C7.20333 3.76784 5.74805 5.2143 5.74805 7.00016C5.74805 8.77794 7.20333 10.2244 9.00008 10.2244C10.7887 10.2244 12.244 8.77794 12.244 7.00016C12.244 5.2143 10.7887 3.76784 9.00008 3.76784ZM9.00106 4.97818C10.1149 4.97818 11.0254 5.88323 11.0254 6.99838C11.0254 8.10546 10.1149 9.01051 9.00106 9.01051C7.87911 9.01051 6.96854 8.10546 6.96854 6.99838C6.96854 6.86101 6.9848 6.73172 7.00919 6.60243H7.04984C7.95228 6.60243 8.68398 5.89131 8.7165 5.00243C8.80594 4.98626 8.9035 4.97818 9.00106 4.97818Z" fill="#C3D9E9"/>
</svg>
