<svg width="13" height="13" viewBox="0 0 10 10" fill="none" xmlns="http://www.w3.org/2000/svg">
<path d="M7.95926 6.16C7.82976 6.2855 7.77026 6.467 7.79976 6.645L8.24426 9.105C8.28176 9.3135 8.19376 9.5245 8.01926 9.645C7.84826 9.77 7.62076 9.785 7.43426 9.685L5.21976 8.53C5.14276 8.489 5.05726 8.467 4.96976 8.4645H4.83426C4.78726 8.4715 4.74126 8.4865 4.69926 8.5095L2.48426 9.67C2.37476 9.725 2.25076 9.7445 2.12926 9.725C1.83326 9.669 1.63575 9.387 1.68425 9.0895L2.12926 6.6295C2.15876 6.45 2.09926 6.2675 1.96976 6.14L0.164255 4.39C0.0132548 4.2435 -0.0392452 4.0235 0.0297548 3.825C0.0967548 3.627 0.267755 3.4825 0.474255 3.45L2.95926 3.0895C3.14826 3.07 3.31426 2.955 3.39926 2.785L4.49426 0.54C4.52026 0.49 4.55376 0.444 4.59426 0.405L4.63926 0.37C4.66276 0.344 4.68976 0.3225 4.71976 0.305L4.77426 0.285L4.85926 0.25H5.06976C5.25776 0.2695 5.42326 0.382 5.50976 0.55L6.61926 2.785C6.69926 2.9485 6.85476 3.062 7.03426 3.0895L9.51926 3.45C9.72926 3.48 9.90476 3.625 9.97426 3.825C10.0398 4.0255 9.98326 4.2455 9.82926 4.39L7.95926 6.16Z" fill="#FFC700"/>
</svg>
