<svg width="12" height="12" viewBox="0 0 12 12" fill="none" xmlns="http://www.w3.org/2000/svg">
<g clip-path="url(#clip0_356_3205)">
<path d="M4.5 0H2.5C1.83696 0 1.20107 0.263392 0.732233 0.732233C0.263392 1.20107 0 1.83696 0 2.5L0 9.5C0 9.8283 0.0646644 10.1534 0.190301 10.4567C0.315938 10.76 0.500087 11.0356 0.732233 11.2678C1.20107 11.7366 1.83696 12 2.5 12H7V2.5C7 2.1717 6.93534 1.84661 6.8097 1.54329C6.68406 1.23998 6.49991 0.96438 6.26777 0.732233C6.03562 0.500087 5.76002 0.315938 5.45671 0.190301C5.15339 0.0646644 4.8283 0 4.5 0V0ZM2.5 9.5H2C1.86739 9.5 1.74021 9.44732 1.64645 9.35355C1.55268 9.25979 1.5 9.13261 1.5 9C1.5 8.86739 1.55268 8.74021 1.64645 8.64645C1.74021 8.55268 1.86739 8.5 2 8.5H2.5C2.63261 8.5 2.75979 8.55268 2.85355 8.64645C2.94732 8.74021 3 8.86739 3 9C3 9.13261 2.94732 9.25979 2.85355 9.35355C2.75979 9.44732 2.63261 9.5 2.5 9.5ZM2.5 7.5H2C1.86739 7.5 1.74021 7.44732 1.64645 7.35355C1.55268 7.25979 1.5 7.13261 1.5 7C1.5 6.86739 1.55268 6.74021 1.64645 6.64645C1.74021 6.55268 1.86739 6.5 2 6.5H2.5C2.63261 6.5 2.75979 6.55268 2.85355 6.64645C2.94732 6.74021 3 6.86739 3 7C3 7.13261 2.94732 7.25979 2.85355 7.35355C2.75979 7.44732 2.63261 7.5 2.5 7.5ZM2.5 5.5H2C1.86739 5.5 1.74021 5.44732 1.64645 5.35355C1.55268 5.25979 1.5 5.13261 1.5 5C1.5 4.86739 1.55268 4.74021 1.64645 4.64645C1.74021 4.55268 1.86739 4.5 2 4.5H2.5C2.63261 4.5 2.75979 4.55268 2.85355 4.64645C2.94732 4.74021 3 4.86739 3 5C3 5.13261 2.94732 5.25979 2.85355 5.35355C2.75979 5.44732 2.63261 5.5 2.5 5.5ZM2.5 3.5H2C1.86739 3.5 1.74021 3.44732 1.64645 3.35355C1.55268 3.25979 1.5 3.13261 1.5 3C1.5 2.86739 1.55268 2.74021 1.64645 2.64645C1.74021 2.55268 1.86739 2.5 2 2.5H2.5C2.63261 2.5 2.75979 2.55268 2.85355 2.64645C2.94732 2.74021 3 2.86739 3 3C3 3.13261 2.94732 3.25979 2.85355 3.35355C2.75979 3.44732 2.63261 3.5 2.5 3.5ZM5 9.5H4.5C4.36739 9.5 4.24021 9.44732 4.14645 9.35355C4.05268 9.25979 4 9.13261 4 9C4 8.86739 4.05268 8.74021 4.14645 8.64645C4.24021 8.55268 4.36739 8.5 4.5 8.5H5C5.13261 8.5 5.25979 8.55268 5.35355 8.64645C5.44732 8.74021 5.5 8.86739 5.5 9C5.5 9.13261 5.44732 9.25979 5.35355 9.35355C5.25979 9.44732 5.13261 9.5 5 9.5ZM5 7.5H4.5C4.36739 7.5 4.24021 7.44732 4.14645 7.35355C4.05268 7.25979 4 7.13261 4 7C4 6.86739 4.05268 6.74021 4.14645 6.64645C4.24021 6.55268 4.36739 6.5 4.5 6.5H5C5.13261 6.5 5.25979 6.55268 5.35355 6.64645C5.44732 6.74021 5.5 6.86739 5.5 7C5.5 7.13261 5.44732 7.25979 5.35355 7.35355C5.25979 7.44732 5.13261 7.5 5 7.5ZM5 5.5H4.5C4.36739 5.5 4.24021 5.44732 4.14645 5.35355C4.05268 5.25979 4 5.13261 4 5C4 4.86739 4.05268 4.74021 4.14645 4.64645C4.24021 4.55268 4.36739 4.5 4.5 4.5H5C5.13261 4.5 5.25979 4.55268 5.35355 4.64645C5.44732 4.74021 5.5 4.86739 5.5 5C5.5 5.13261 5.44732 5.25979 5.35355 5.35355C5.25979 5.44732 5.13261 5.5 5 5.5ZM5 3.5H4.5C4.36739 3.5 4.24021 3.44732 4.14645 3.35355C4.05268 3.25979 4 3.13261 4 3C4 2.86739 4.05268 2.74021 4.14645 2.64645C4.24021 2.55268 4.36739 2.5 4.5 2.5H5C5.13261 2.5 5.25979 2.55268 5.35355 2.64645C5.44732 2.74021 5.5 2.86739 5.5 3C5.5 3.13261 5.44732 3.25979 5.35355 3.35355C5.25979 3.44732 5.13261 3.5 5 3.5ZM9.5 2.5H8V12H9.5C10.1628 11.9992 10.7982 11.7356 11.2669 11.2669C11.7356 10.7982 11.9992 10.1628 12 9.5V5C11.9992 4.3372 11.7356 3.70178 11.2669 3.23311C10.7982 2.76444 10.1628 2.50079 9.5 2.5V2.5ZM10 9.5C9.90111 9.5 9.80444 9.47068 9.72221 9.41574C9.63999 9.36079 9.5759 9.2827 9.53806 9.19134C9.50022 9.09998 9.49031 8.99944 9.50961 8.90245C9.5289 8.80546 9.57652 8.71637 9.64645 8.64645C9.71637 8.57652 9.80546 8.5289 9.90245 8.50961C9.99944 8.49031 10.1 8.50022 10.1913 8.53806C10.2827 8.5759 10.3608 8.63999 10.4157 8.72221C10.4707 8.80444 10.5 8.90111 10.5 9C10.5 9.13261 10.4473 9.25979 10.3536 9.35355C10.2598 9.44732 10.1326 9.5 10 9.5ZM10 7.5C9.90111 7.5 9.80444 7.47068 9.72221 7.41573C9.63999 7.36079 9.5759 7.2827 9.53806 7.19134C9.50022 7.09998 9.49031 6.99945 9.50961 6.90245C9.5289 6.80546 9.57652 6.71637 9.64645 6.64645C9.71637 6.57652 9.80546 6.5289 9.90245 6.50961C9.99944 6.49031 10.1 6.50022 10.1913 6.53806C10.2827 6.5759 10.3608 6.63999 10.4157 6.72221C10.4707 6.80444 10.5 6.90111 10.5 7C10.5 7.13261 10.4473 7.25979 10.3536 7.35355C10.2598 7.44732 10.1326 7.5 10 7.5ZM10 5.5C9.90111 5.5 9.80444 5.47068 9.72221 5.41573C9.63999 5.36079 9.5759 5.2827 9.53806 5.19134C9.50022 5.09998 9.49031 4.99945 9.50961 4.90245C9.5289 4.80546 9.57652 4.71637 9.64645 4.64645C9.71637 4.57652 9.80546 4.5289 9.90245 4.50961C9.99944 4.49031 10.1 4.50022 10.1913 4.53806C10.2827 4.5759 10.3608 4.63999 10.4157 4.72221C10.4707 4.80444 10.5 4.90111 10.5 5C10.5 5.13261 10.4473 5.25979 10.3536 5.35355C10.2598 5.44732 10.1326 5.5 10 5.5Z" fill="#C3D9E9"/>
</g>
<defs>
<clipPath id="clip0_356_3205">
<rect width="12" height="12" fill="white"/>
</clipPath>
</defs>
</svg>
