<svg width="48" height="48" viewBox="0 0 48 48" fill="none" xmlns="http://www.w3.org/2000/svg">
<rect width="48" height="48" rx="20" fill="#FFBF00" fill-opacity="0.1"/>
<path fill-rule="evenodd" clip-rule="evenodd" d="M15.8787 17.8787C15 18.7574 15 20.1716 15 23V25C15 27.8284 15 29.2426 15.8787 30.1213C16.7574 31 18.1716 31 21 31H27C29.8284 31 31.2426 31 32.1213 30.1213C33 29.2426 33 27.8284 33 25V23C33 20.1716 33 18.7574 32.1213 17.8787C31.2426 17 29.8284 17 27 17H21C18.1716 17 16.7574 17 15.8787 17.8787ZM18.5547 20.1679C18.0952 19.8616 17.4743 19.9858 17.1679 20.4453C16.8616 20.9048 16.9858 21.5257 17.4453 21.8321L22.8906 25.4622C23.5624 25.9101 24.4376 25.9101 25.1094 25.4622L30.5547 21.8321C31.0142 21.5257 31.1384 20.9048 30.8321 20.4453C30.5257 19.9858 29.9048 19.8616 29.4453 20.1679L24 23.7982L18.5547 20.1679Z" fill="#FFBF00"/>
</svg>
