<svg width="22" height="22" viewBox="0 0 22 22" fill="none" xmlns="http://www.w3.org/2000/svg">
<rect width="22" height="22" rx="11" fill="#FFBF00" fill-opacity="0.1"/>
<g clip-path="url(#clip0_356_3198)">
<path d="M11 6C10.0111 6 9.0444 6.29324 8.22215 6.84265C7.39991 7.39206 6.75904 8.17295 6.3806 9.08658C6.00217 10.0002 5.90315 11.0055 6.09608 11.9755C6.289 12.9454 6.76521 13.8363 7.46447 14.5355C8.16373 15.2348 9.05465 15.711 10.0246 15.9039C10.9945 16.0969 11.9998 15.9978 12.9134 15.6194C13.827 15.241 14.6079 14.6001 15.1573 13.7779C15.7068 12.9556 16 11.9889 16 11C15.9986 9.67436 15.4713 8.40342 14.534 7.46605C13.5966 6.52868 12.3256 6.00143 11 6V6ZM11 11.8333C10.8167 11.834 10.6384 11.7739 10.4927 11.6627C10.3471 11.5514 10.2423 11.395 10.1948 11.218C10.1473 11.041 10.1596 10.8532 10.2299 10.684C10.3001 10.5147 10.4244 10.3734 10.5833 10.2821V8.91667C10.5833 8.80616 10.6272 8.70018 10.7054 8.62204C10.7835 8.5439 10.8895 8.5 11 8.5C11.1105 8.5 11.2165 8.5439 11.2946 8.62204C11.3728 8.70018 11.4167 8.80616 11.4167 8.91667V10.2821C11.5756 10.3734 11.6999 10.5147 11.7702 10.684C11.8404 10.8532 11.8528 11.041 11.8052 11.218C11.7577 11.395 11.6529 11.5514 11.5073 11.6627C11.3616 11.7739 11.1833 11.834 11 11.8333V11.8333Z" fill="#FFBF00"/>
</g>
<defs>
<clipPath id="clip0_356_3198">
<rect width="10" height="10" fill="white" transform="translate(6 6)"/>
</clipPath>
</defs>
</svg>
