<svg width="14" height="14" viewBox="0 0 14 14" fill="none" xmlns="http://www.w3.org/2000/svg">
<path d="M10.5356 5.55615L8.44381 3.46432C8.0548 3.0931 7.53776 2.88599 7.00005 2.88599C6.46235 2.88599 5.94531 3.0931 5.5563 3.46432L3.46447 5.55615C3.3004 5.7203 3.20826 5.9429 3.20831 6.17499C3.20837 6.40707 3.30062 6.62963 3.46476 6.7937C3.62891 6.95777 3.85151 7.04991 4.08359 7.04985C4.31568 7.0498 4.53823 6.95755 4.7023 6.7934L6.12505 5.37065V11.0832C6.12505 11.3153 6.21724 11.5379 6.38134 11.702C6.54543 11.8661 6.76799 11.9582 7.00005 11.9582C7.23212 11.9582 7.45468 11.8661 7.61877 11.702C7.78287 11.5379 7.87505 11.3153 7.87505 11.0832V5.37065L9.29781 6.7934C9.37904 6.87468 9.4755 6.93916 9.58166 6.98316C9.68781 7.02717 9.8016 7.04983 9.91652 7.04985C10.0314 7.04988 10.1452 7.02727 10.2514 6.98332C10.3576 6.93937 10.4541 6.87494 10.5353 6.7937C10.6166 6.71246 10.6811 6.61601 10.7251 6.50985C10.7691 6.40369 10.7918 6.2899 10.7918 6.17499C10.7918 6.06007 10.7692 5.94627 10.7253 5.84009C10.6813 5.73391 10.6169 5.63743 10.5356 5.55615Z" fill="#FF7A00"/>
</svg>
