<svg width="96" height="33" viewBox="0 0 1948 648" fill="none" xmlns="http://www.w3.org/2000/svg">
<g filter="url(#filter0_d_125_1269)">
<path fill-rule="evenodd" clip-rule="evenodd" d="M132.634 152.101C132.634 152.101 334.93 64.5353 418.844 233.806C418.844 233.806 468.63 335.089 406.714 451.033C406.714 451.033 339.267 578.662 138.201 566.385L137.741 497.455C137.741 497.455 208.474 469.15 213.339 360.597C213.339 360.597 219.792 254.984 142.341 181.046C142.341 181.046 130.504 150.641 132.634 152.101Z" fill="#FFBF00"/>
<mask id="mask0_125_1269" style="mask-type:luminance" maskUnits="userSpaceOnUse" x="132" y="129" width="250" height="439">
<path d="M132.447 152.434C132.447 152.434 297.863 64.9381 366.478 234.073C366.478 234.073 407.188 335.275 356.56 451.126C356.56 451.126 301.409 578.653 136.999 566.386L136.623 497.511C136.623 497.511 194.461 469.228 198.439 360.762C198.439 360.762 203.715 255.234 140.385 181.356C140.385 181.356 130.706 150.975 132.447 152.434Z" fill="white"/>
</mask>
<g mask="url(#mask0_125_1269)">
<path fill-rule="evenodd" clip-rule="evenodd" d="M-3.56357 253.705C-3.56357 253.705 171.733 93.614 271.38 251.192C271.38 251.192 351.111 371.031 299.568 511.938C299.568 511.938 242.22 602.491 54.3051 614.615L44.9675 546.374C44.9675 546.374 106.856 509.785 97.331 401.642C97.331 401.642 89.6564 296.22 8.32427 232.318C8.32427 232.318 -5.7258 252.515 -3.56357 253.705Z" fill="#FF7A00"/>
</g>
<path fill-rule="evenodd" clip-rule="evenodd" d="M144.122 150.019C144.151 151.949 144.192 155.642 144.18 160.184C144.008 225.939 139.666 541.308 139.306 567.399C70.1289 574.019 35.5382 595.899 18.1903 616.072C10.8036 624.662 6.50357 632.976 4 639.778C5.84836 591.738 28.9434 518.926 28.9434 518.926C29.0033 518.738 29.0338 518.543 29.0326 518.343C29.0326 518.343 28.2034 372.856 27.5866 264.578C27.4114 233.811 39.6642 204.281 61.5582 182.704C83.4522 161.126 113.127 149.334 143.833 150.012L144.122 150.019Z" fill="#00C0CA"/>
<mask id="mask1_125_1269" style="mask-type:luminance" maskUnits="userSpaceOnUse" x="4" y="149" width="141" height="491">
<path d="M144.122 150.019C144.151 151.949 144.192 155.642 144.18 160.184C144.008 225.939 139.666 541.308 139.306 567.399C70.1289 574.019 35.5382 595.899 18.1903 616.072C10.8036 624.662 6.50357 632.976 4 639.778C5.84836 591.738 28.9434 518.926 28.9434 518.926C29.0033 518.738 29.0338 518.543 29.0326 518.343C29.0326 518.343 28.2034 372.856 27.5866 264.578C27.4114 233.811 39.6642 204.281 61.5582 182.704C83.4522 161.126 113.127 149.334 143.833 150.012L144.122 150.019Z" fill="white"/>
</mask>
<g mask="url(#mask1_125_1269)">
<path fill-rule="evenodd" clip-rule="evenodd" d="M189.039 172.49C189.068 174.42 189.109 178.113 189.097 182.655C188.925 248.41 184.583 563.78 184.223 589.87C115.046 596.49 80.4552 618.37 63.1073 638.543C55.7206 647.134 51.4206 655.448 48.917 662.25C50.7654 614.21 73.8604 541.398 73.8604 541.398C73.9203 541.209 73.9508 541.015 73.9496 540.814C73.9496 540.814 73.1204 395.327 72.5036 287.049C72.3284 256.282 84.5812 226.753 106.475 205.175C128.369 183.597 158.044 171.806 188.75 172.483L189.039 172.49Z" fill="#00B0B9"/>
</g>
<path d="M15.337 64.738C12.6505 100.492 33.9784 130.946 69.7322 133.632C105.486 136.319 130.112 116.684 132.799 80.9299C135.485 45.1761 120.693 7.55105 84.9394 4.8645C49.1857 2.17796 18.0236 28.9842 15.337 64.738Z" fill="#00C0CA"/>
<path d="M550.489 379.688C557.676 405.672 577.164 418.664 608.952 418.664C629.408 418.664 644.887 411.754 655.391 397.932L698.513 422.811C678.058 452.388 647.928 467.176 608.123 467.176C573.847 467.176 546.342 456.811 525.611 436.079C504.879 415.347 494.513 389.225 494.513 357.713C494.513 326.477 504.741 300.493 525.196 279.761C545.651 258.753 571.912 248.249 603.977 248.249C634.383 248.249 659.4 258.753 679.026 279.761C698.928 300.77 708.879 326.753 708.879 357.713C708.879 364.623 708.188 371.949 706.806 379.688H550.489ZM549.659 338.225H655.391C652.351 324.127 645.993 313.623 636.318 306.713C626.92 299.802 616.139 296.347 603.977 296.347C589.603 296.347 577.716 300.079 568.318 307.542C558.92 314.729 552.7 324.957 549.659 338.225ZM787.462 312.932C787.462 318.461 791.056 323.022 798.243 326.615C805.706 329.932 814.69 332.973 825.194 335.737C835.698 338.225 846.202 341.542 856.706 345.688C867.21 349.558 876.056 356.193 883.243 365.591C890.706 374.989 894.438 386.737 894.438 400.835C894.438 422.119 886.422 438.567 870.389 450.176C854.633 461.51 834.869 467.176 811.097 467.176C768.527 467.176 739.503 450.729 724.023 417.835L770.462 391.713C776.544 409.68 790.088 418.664 811.097 418.664C830.17 418.664 839.706 412.721 839.706 400.835C839.706 395.306 835.975 390.884 828.511 387.567C821.324 383.973 812.479 380.794 801.975 378.03C791.47 375.266 780.966 371.81 770.462 367.664C759.958 363.518 750.974 357.022 743.511 348.176C736.324 339.054 732.731 327.721 732.731 314.176C732.731 293.721 740.194 277.688 755.121 266.079C770.324 254.192 789.121 248.249 811.511 248.249C828.373 248.249 843.714 252.119 857.536 259.859C871.357 267.322 882.276 278.103 890.292 292.201L844.682 317.079C838.048 302.981 826.991 295.932 811.511 295.932C804.601 295.932 798.796 297.453 794.097 300.493C789.674 303.534 787.462 307.68 787.462 312.932ZM1041.35 305.469H994.495V391.713C994.495 398.9 996.292 404.152 999.885 407.469C1003.48 410.786 1008.73 412.721 1015.64 413.274C1022.55 413.55 1031.12 413.412 1041.35 412.859V461.372C1004.58 465.518 978.6 462.063 963.397 451.006C948.47 439.949 941.007 420.185 941.007 391.713V305.469H904.934V254.054H941.007V212.176L994.495 196.005V254.054H1041.35V305.469ZM1105.6 229.176C1096.75 229.176 1089.01 225.997 1082.38 219.639C1076.02 213.005 1072.84 205.265 1072.84 196.42C1072.84 187.574 1076.02 179.834 1082.38 173.2C1089.01 166.566 1096.75 163.249 1105.6 163.249C1114.72 163.249 1122.46 166.566 1128.82 173.2C1135.45 179.834 1138.77 187.574 1138.77 196.42C1138.77 205.265 1135.45 213.005 1128.82 219.639C1122.46 225.997 1114.72 229.176 1105.6 229.176ZM1079.06 461.372V254.054H1132.55V461.372H1079.06ZM1296.77 248.249C1319.44 248.249 1338.1 255.851 1352.75 271.054C1367.68 286.257 1375.14 307.266 1375.14 334.079V461.372H1321.65V340.713C1321.65 326.892 1317.92 316.388 1310.46 309.201C1302.99 301.737 1293.04 298.005 1280.6 298.005C1266.78 298.005 1255.72 302.29 1247.43 310.859C1239.14 319.428 1234.99 332.282 1234.99 349.42V461.372H1181.5V254.054H1234.99V277.274C1247.98 257.924 1268.58 248.249 1296.77 248.249ZM1578.37 254.054H1631.86V461.372H1578.37V436.908C1562.34 457.087 1539.81 467.176 1510.79 467.176C1483.14 467.176 1459.37 456.672 1439.47 435.664C1419.84 414.38 1410.03 388.396 1410.03 357.713C1410.03 327.03 1419.84 301.184 1439.47 280.176C1459.37 258.892 1483.14 248.249 1510.79 248.249C1539.81 248.249 1562.34 258.339 1578.37 278.518V254.054ZM1479.69 400.006C1490.47 410.786 1504.15 416.176 1520.74 416.176C1537.32 416.176 1551.01 410.786 1561.79 400.006C1572.84 388.949 1578.37 374.851 1578.37 357.713C1578.37 340.575 1572.84 326.615 1561.79 315.835C1551.01 304.778 1537.32 299.249 1520.74 299.249C1504.15 299.249 1490.47 304.778 1479.69 315.835C1468.91 326.615 1463.52 340.575 1463.52 357.713C1463.52 374.851 1468.91 388.949 1479.69 400.006ZM1728.08 312.932C1728.08 318.461 1731.68 323.022 1738.86 326.615C1746.33 329.932 1755.31 332.973 1765.82 335.737C1776.32 338.225 1786.82 341.542 1797.33 345.688C1807.83 349.558 1816.68 356.193 1823.87 365.591C1831.33 374.989 1835.06 386.737 1835.06 400.835C1835.06 422.119 1827.04 438.567 1811.01 450.176C1795.26 461.51 1775.49 467.176 1751.72 467.176C1709.15 467.176 1680.12 450.729 1664.65 417.835L1711.08 391.713C1717.17 409.68 1730.71 418.664 1751.72 418.664C1770.79 418.664 1780.33 412.721 1780.33 400.835C1780.33 395.306 1776.6 390.884 1769.13 387.567C1761.95 383.973 1753.1 380.794 1742.6 378.03C1732.09 375.266 1721.59 371.81 1711.08 367.664C1700.58 363.518 1691.6 357.022 1684.13 348.176C1676.95 339.054 1673.35 327.721 1673.35 314.176C1673.35 293.721 1680.82 277.688 1695.74 266.079C1710.95 254.192 1729.74 248.249 1752.13 248.249C1769 248.249 1784.34 252.119 1798.16 259.859C1811.98 267.322 1822.9 278.103 1830.91 292.201L1785.3 317.079C1778.67 302.981 1767.61 295.932 1752.13 295.932C1745.22 295.932 1739.42 297.453 1734.72 300.493C1730.3 303.534 1728.08 307.68 1728.08 312.932ZM1896 229.176C1887.15 229.176 1879.41 225.997 1872.78 219.639C1866.42 213.005 1863.24 205.265 1863.24 196.42C1863.24 187.574 1866.42 179.834 1872.78 173.2C1879.41 166.566 1887.15 163.249 1896 163.249C1905.12 163.249 1912.86 166.566 1919.21 173.2C1925.85 179.834 1929.17 187.574 1929.17 196.42C1929.17 205.265 1925.85 213.005 1919.21 219.639C1912.86 225.997 1905.12 229.176 1896 229.176ZM1869.46 461.372V254.054H1922.95V461.372H1869.46Z" fill="#00C0CA"/>
</g>
<defs>
<filter id="filter0_d_125_1269" x="0" y="4.67896" width="1933.17" height="643.099" filterUnits="userSpaceOnUse" color-interpolation-filters="sRGB">
<feFlood flood-opacity="0" result="BackgroundImageFix"/>
<feColorMatrix in="SourceAlpha" type="matrix" values="0 0 0 0 0 0 0 0 0 0 0 0 0 0 0 0 0 0 127 0" result="hardAlpha"/>
<feOffset dy="4"/>
<feGaussianBlur stdDeviation="2"/>
<feComposite in2="hardAlpha" operator="out"/>
<feColorMatrix type="matrix" values="0 0 0 0 0 0 0 0 0 0 0 0 0 0 0 0 0 0 0.25 0"/>
<feBlend mode="normal" in2="BackgroundImageFix" result="effect1_dropShadow_125_1269"/>
<feBlend mode="normal" in="SourceGraphic" in2="effect1_dropShadow_125_1269" result="shape"/>
</filter>
</defs>
</svg>
